<svg xmlns="http://www.w3.org/2000/svg" width="210" height="209" viewBox="0 0 210 209">
  <g fill="none">
    <path fill="#FA8038" d="M105,54 C90.112875,54 78,41.887125 78,27 C78,12.112875 90.112875,0 105,0 C119.887125,0 132,12.112875 132,27 C132,41.887125 119.887125,54 105,54 Z M115.523463,20.0155952 C115.523463,19.5937197 115.195337,19.2655943 114.773462,19.2655943 L110.765644,19.2655943 C110.507832,17.9765303 110.015644,16.8515289 109.265643,15.8905903 L114.726587,15.8905903 C115.148462,15.8905903 115.476588,15.5624649 115.476588,15.1405894 L115.476588,12.7499616 C115.476588,12.3280861 115.148462,11.9999607 114.726587,11.9999607 L95.2265634,11.9999607 C94.8046879,11.9999607 94.4765625,12.3280861 94.4765625,12.7499616 L94.4765625,15.8671528 C94.4765625,16.2655907 94.8046879,16.6171537 95.2265634,16.6171537 L98.6250049,16.6171537 C101.906259,16.6171537 104.015636,17.5077797 104.906262,19.2655943 L95.2265634,19.2655943 C94.8046879,19.2655943 94.4765625,19.5937197 94.4765625,20.0155952 L94.4765625,22.4062231 C94.4765625,22.8280986 94.8046879,23.156224 95.2265634,23.156224 L105.234388,23.156224 C104.5547,25.7109145 101.976571,27.0937287 97.8515665,27.0937287 L95.2265634,27.0937287 C94.8046879,27.0937287 94.4765625,27.4452916 94.4765625,27.8437295 L94.4765625,30.8202956 C94.4765625,31.0077958 94.5468751,31.195296 94.6875003,31.3359212 C99.117193,36.0468643 102.585947,40.1953068 106.359389,44.7187497 C106.500014,44.9062499 106.710952,45 106.945327,45 L111.515645,45 C111.820333,45 112.078146,44.8359373 112.195334,44.5781245 C112.335959,44.3203117 112.289084,43.9921863 112.101584,43.7812485 C108.562517,39.4453059 104.83595,34.9453005 101.343758,31.2187336 C106.664077,30.5859203 110.109394,27.6562293 110.835957,23.156224 L114.773462,23.156224 C115.195337,23.156224 115.523463,22.8280986 115.523463,22.4062231 L115.523463,20.0155952 Z"/>
    <g fill="#313941" transform="translate(0 10)">
      <path d="M195.710704 45.6395772C177.697183 26.8856152 147.923662 25.229666 127.956338 41.8564736L104.82507 61.1119323 81.6938028 41.8564736C61.7129577 25.2263002 31.9529577 26.888981 13.9394366 45.6395772 4.35633803 55.6156617-.693802817 69.2671459.0769014085 83.093649.850985915 96.9066892 7.37830986 109.905218 17.9991549 118.747044L28.2042254 127.238833C26.0847887 132.169658 26.46 137.962114 29.7692958 142.293835 32.2909859 145.592271 35.9383099 147.665573 40.0385915 148.119949 41.0290141 148.227653 42.0126761 148.247848 42.9861972 148.163704 42.9050704 148.850317 42.864507 149.547027 42.8746479 150.250469 42.9456338 154.811061 45.0616901 159.062004 48.6921127 161.906063 51.6971831 164.255357 55.4425352 165.241522 59.1676056 164.904947 59.0729577 165.621852 59.0323944 166.348854 59.0425352 167.082588 59.1135211 171.64318 61.2261972 175.887391 64.8566197 178.73145 67.8616901 181.080744 71.603662 182.093835 75.3321127 181.730334 75.2408451 182.447239 75.1969014 183.177607 75.2070423 183.91134 75.2780282 188.471932 77.3940845 192.71951 81.024507 195.560203 83.6374648 197.606579 86.8284507 198.623036 90.0566197 198.623036 93.5991549 198.623036 97.1822535 197.401268 100.096056 194.974562L101.397465 193.890791C104.236901 196.452127 107.833521 197.741209 111.426761 197.737844 115.148451 197.737844 118.86 196.374715 121.73662 193.651822 124.755211 190.790934 126.458873 186.768863 126.428451 182.615526 126.42507 182.241928 126.333803 181.881793 126.30338 181.51156 126.989577 181.605801 127.675775 181.696677 128.368732 181.696677 132.087042 181.696677 135.798592 180.336913 138.675211 177.614021 141.690423 174.756499 143.397465 170.737793 143.367042 166.581091 143.363662 166.207493 143.272394 165.843992 143.241972 165.473759 143.928169 165.568 144.617746 165.658875 145.310704 165.658875 149.025634 165.658875 152.740563 164.292381 155.613803 161.569488 158.632394 158.715332 160.339437 154.696626 160.309014 150.539924 160.305634 150.16296 160.214366 149.802825 160.183944 149.429226 160.870141 149.523467 161.556338 149.614342 162.249296 149.614342 165.967606 149.614342 169.682535 148.251214 172.559155 145.528321 175.577746 142.667433 177.281408 138.645362 177.250986 134.492025 177.240845 133.388059 177.092113 132.300922 176.845352 131.24071 176.879155 131.213784 176.919718 131.207053 176.953521 131.176761L191.661127 118.747044C202.281972 109.905218 208.809296 96.910055 209.58338 83.093649 210.343944 69.2637801 205.293803 55.6156617 195.710704 45.6395772zM22.3394366 113.577252C13.0166197 105.815831 7.50676056 94.8569471 6.83070423 82.716685 6.15126761 70.5696913 10.4138028 59.052093 18.8273239 50.2910444 34.3901408 34.0883214 60.1039437 32.6477801 77.3569014 47.0195349L132.408169 92.8475941C134.22 94.3588161 135.291549 96.4893362 135.42338 98.852093 135.555211 101.21485 134.727042 103.45644 133.090986 105.15951 130.082535 108.293023 125.262254 108.599307 121.878592 105.889877L96.9490141 85.8905877C95.495493 84.7193066 93.3659155 84.9515433 92.1997183 86.3988161 92.1929577 86.4089133 92.1929577 86.4190106 92.1861972 86.4257421L92.1591549 86.4021818C88.0385915 91.6022664 81.8830986 94.5843214 75.2712676 94.5843214 63.3692958 94.5843214 53.688169 84.8606681 53.688169 72.9156195L46.9276056 72.9156195C46.9276056 83.4133953 52.6571831 92.578334 61.128169 97.4923298L32.5783099 121.264626C32.4126761 121.402622 32.2876056 121.574275 32.1287324 121.719002L22.3394366 113.577252zM85.1991549 190.269243C83.1811268 188.68734 82.0014085 186.334681 81.9642254 183.813734 81.923662 181.286055 83.0121127 178.913201 84.9456338 177.301006L86.7507042 175.796516C87.2442254 179.209387 88.8329577 182.403484 91.3985915 184.752778L96.3676056 189.303273 95.7523944 189.814867C92.6222535 192.416592 88.1839437 192.60844 85.1991549 190.269243zM117.068451 188.771484C113.961972 191.719882 109.047042 191.770368 105.872958 188.862359L95.9721127 179.795027C94.2549296 178.219856 93.2983099 176.072507 93.2814085 173.733311 93.2611268 171.400846 94.1839437 169.233302 95.8740845 167.634571 97.4492958 166.143543 99.4808451 165.396347 101.519155 165.396347 103.510141 165.396347 105.501127 166.109886 107.066197 167.543696L110.318028 170.522385 116.980563 176.627856C118.687606 178.199662 119.640845 180.343645 119.661127 182.669378 119.681408 185.001844 118.758592 187.172753 117.068451 188.771484zM134.007042 172.733683C130.893803 175.675349 125.982254 175.722469 122.81493 172.827924L121.570986 171.686934C121.560845 171.676837 121.554085 171.66674 121.543944 171.656643L112.910704 163.750495 112.910704 163.750495C111.196901 162.178689 110.240282 160.03134 110.22 157.69551 110.199718 155.359679 111.122535 153.192135 112.812676 151.593404 114.387887 150.105742 116.419437 149.35518 118.457746 149.35518 120.448732 149.35518 122.443099 150.072085 124.008169 151.505894L133.909014 160.573226C135.626197 162.148397 136.582817 164.295746 136.599718 166.634943 136.62 168.964042 135.697183 171.131586 134.007042 172.733683zM150.949014 156.68915C147.835775 159.637548 142.924225 159.681302 139.756901 156.780025L129.852676 147.709328C128.135493 146.137522 127.182254 143.986808 127.161972 141.650977 127.14169 139.315146 128.064507 137.150968 129.754648 135.552237 131.329859 134.061209 133.364789 133.314013 135.403099 133.314013 137.394085 133.314013 139.38507 134.027552 140.946761 135.461362L148.160282 142.06833 150.857746 144.542156C152.568169 146.110596 153.518028 148.261311 153.53831 150.593776 153.558592 152.926241 152.639155 155.087053 150.949014 156.68915zM167.890986 140.647983C164.777746 143.596381 159.862817 143.63677 156.695493 140.742224L155.448169 139.597869C155.438028 139.591137 155.434648 139.577674 155.424507 139.570943L147.734366 132.526427 146.794648 131.664795C145.077465 130.089624 144.120845 127.942275 144.103944 125.603078 144.083662 123.270613 145.006479 121.10307 146.69662 119.504338 148.268451 118.013311 150.3 117.266114 152.33831 117.266114 154.329296 117.266114 156.323662 117.983019 157.888732 119.416829L167.792958 128.487526C169.506761 130.059332 170.46338 132.206681 170.483662 134.542512 170.503944 136.878342 169.581127 139.049252 167.890986 140.647983zM202.819437 82.716685C202.14338 94.8535814 196.633521 105.815831 187.290423 113.59408L173.718592 125.064558C173.282535 124.539501 172.870141 123.997615 172.363099 123.533142L162.458873 114.462444C156.688732 109.181581 147.717465 109.245531 142.031831 114.630732 139.01662 117.488254 137.309577 121.50696 137.34 125.663662 137.34338 126.03726 137.434648 126.397395 137.46507 126.767628 133.090986 126.165159 128.500563 127.44751 125.089859 130.671899 122.074648 133.529421 120.364225 137.551493 120.398028 141.704829 120.401408 142.078427 120.492676 142.438562 120.523099 142.808795 116.149014 142.206326 111.558592 143.481945 108.147887 146.7097 105.129296 149.570588 103.425634 153.59266 103.456056 157.745996 103.459437 158.119594 103.550704 158.479729 103.581127 158.846596 99.2070423 158.244127 94.62 159.523112 91.2092958 162.750867 90.3270423 163.585573 89.5969014 164.541446 88.9478873 165.551171 88.5152113 165.67907 88.0960563 165.887746 87.7242254 166.19403L80.615493 172.117751C80.6121127 172.121116 80.6053521 172.121116 80.6019718 172.124482L79.5777465 172.979383C76.4509859 175.577742 72.0160563 175.776321 69.024507 173.433759 67.0064789 171.851856 65.8301408 169.499197 65.7929577 166.978249 65.7523944 164.453937 66.8374648 162.087814 68.7608451 160.475619L68.7777465 160.462156 68.7777465 160.462156 103.939437 131.186858 99.6025352 126.020431 64.4408451 155.295729 64.4442254 155.299095 64.4408451 155.299095 64.4374648 155.299095 63.4166197 156.15063C60.2864789 158.759087 55.8515493 158.947569 52.8633803 156.608372 50.8453521 155.026469 49.6656338 152.670444 49.6284507 150.146131 49.5912676 147.621818 50.676338 145.255696 52.5997183 143.646867L52.6132394 143.63677 88.2684507 113.95085 83.9315493 108.784423 48.276338 138.470342C48.2695775 138.477074 48.2628169 138.483805 48.2560563 138.490537L46.9512676 139.570943C45.2171831 141.018216 43.0301408 141.657708 40.7856338 141.425471 38.5411268 141.17304 36.5366197 140.032051 35.1439437 138.21118 32.4904225 134.734359 33.2780282 129.446765 36.9050704 126.427687L68.1861972 100.38351C70.4509859 100.96915 72.8138028 101.315822 75.2577465 101.315822 82.8059155 101.315822 89.8943662 98.3573277 95.1743662 93.1134884L117.626197 111.126985C123.764789 116.061175 132.506197 115.492364 137.968732 109.810977 140.869014 106.791899 142.403662 102.658757 142.167042 98.475129 141.933803 94.2948668 139.956338 90.3603044 136.74169 87.681167L110.091549 65.4941395 132.286479 47.0161691C149.539437 32.6410486 175.25662 34.0815899 190.816056 50.2876786 199.239718 59.052093 203.502254 70.5696913 202.819437 82.716685zM145.74338 16.9095307L146.09831 10.1847611C145.476338 10.1511036 144.847606 10.1342748 144.222254 10.1342748L138.766479 10.1342748 138.766479 16.8657759 144.218873 16.8657759C144.729296 16.8657759 145.236338 16.8826047 145.74338 16.9095307zM161.208169 14.529945C158.906197 13.2442283 156.452113 12.2210402 153.906761 11.4906723L152.030704 17.9596448C154.075775 18.5486512 156.053239 19.3698943 157.905634 20.4031797L161.208169 14.529945z"/>
      <path d="M172.849859 25.0277209C171.342254 22.8702748 169.581127 20.884482 167.623944 19.1208288L163.087606 24.108871C164.666197 25.5325835 166.085915 27.1346808 167.302817 28.8781395L172.849859 25.0277209zM46.511831 24.0853108L41.9822535 19.090537C40.0216901 20.8508245 38.2605634 22.8332516 36.7461972 24.9906977L42.2864789 28.8478478C43.5101408 27.1077548 44.9332394 25.5056575 46.511831 24.0853108zM57.5890141 17.9461818L55.7197183 11.4772093C53.1777465 12.2042114 50.7202817 13.2240338 48.4115493 14.5063848L51.7073239 20.3829852C53.5597183 19.3530655 55.5405634 18.5318224 57.5890141 17.9461818zM65.3569014 16.8657759L70.8566197 16.8657759 70.8566197 10.1342748 65.3569014 10.1342748C64.7349296 10.1342748 64.1264789 10.1477378 63.5146479 10.1813953L63.876338 16.9061649C64.3698592 16.8792389 64.8633803 16.8657759 65.3569014 16.8657759z"/>
    </g>
  </g>
</svg>
